<svg width="32" height="32" viewBox="0 0 32 32" fill="none" xmlns="http://www.w3.org/2000/svg">
<path d="M31 11.585C31.0008 11.3223 30.9494 11.062 30.8488 10.8193C30.7482 10.5766 30.6003 10.3563 30.4138 10.1713L21.8288 1.585C21.643 1.39924 21.4225 1.25188 21.1798 1.15134C20.9372 1.0508 20.6771 0.999054 20.4144 0.999054C20.1517 0.999054 19.8916 1.0508 19.6489 1.15134C19.4062 1.25188 19.1857 1.39924 19 1.585L15.4463 5.13875L8.19625 7.86C7.86676 7.98288 7.57532 8.19016 7.35112 8.46109C7.12692 8.73202 6.97782 9.05709 6.91875 9.40375L4.01375 26.835C3.98978 26.9783 3.99732 27.1251 4.03584 27.2652C4.07436 27.4052 4.14295 27.5352 4.23681 27.6461C4.33068 27.757 4.44759 27.8461 4.57939 27.9072C4.71119 27.9683 4.85472 28 5 28C5.05528 27.9998 5.11045 27.9952 5.165 27.9863L22.595 25.0813C22.9412 25.0235 23.2662 24.8756 23.5372 24.6524C23.8082 24.4293 24.0156 24.1387 24.1388 23.81L26.86 16.56L30.4138 13C30.6004 12.8148 30.7483 12.5943 30.8489 12.3514C30.9496 12.1084 31.0009 11.8479 31 11.585ZM22.2663 23.1088L7.915 25.5L13.8363 19.5788C14.5758 19.9784 15.4345 20.0986 16.2554 19.9172C17.0763 19.7359 17.8044 19.2651 18.3068 18.5911C18.8091 17.917 19.052 17.0847 18.9912 16.2462C18.9303 15.4078 18.5697 14.6192 17.9752 14.0248C17.3808 13.4304 16.5922 13.0697 15.7538 13.0089C14.9153 12.948 14.083 13.1909 13.4089 13.6932C12.7349 14.1956 12.2641 14.9237 12.0828 15.7446C11.9014 16.5655 12.0216 17.4242 12.4213 18.1638L6.5 24.0875L8.89125 9.7325L15.75 7.16125L24.8375 16.25L22.2663 23.1088ZM14 16.5C14 16.2033 14.088 15.9133 14.2528 15.6666C14.4176 15.42 14.6519 15.2277 14.926 15.1142C15.2001 15.0007 15.5017 14.9709 15.7926 15.0288C16.0836 15.0867 16.3509 15.2296 16.5607 15.4393C16.7704 15.6491 16.9133 15.9164 16.9712 16.2074C17.0291 16.4983 16.9994 16.7999 16.8858 17.074C16.7723 17.3481 16.58 17.5824 16.3334 17.7472C16.0867 17.912 15.7967 18 15.5 18C15.1022 18 14.7206 17.842 14.4393 17.5607C14.158 17.2794 14 16.8978 14 16.5ZM26 14.585L17.4138 6L20.4138 3L29 11.585L26 14.585Z" fill="#3C4C59"/>
</svg>
