<svg width="48" height="48" viewBox="0 0 48 48" fill="none" xmlns="http://www.w3.org/2000/svg">
<rect width="48" height="48" fill="white"/>
<path d="M32.0625 29.4338C33.3271 28.3715 34.3373 27.0392 35.0187 25.5348C35.7001 24.0304 36.0355 22.3924 36 20.7413C35.875 15.0275 31.2988 10.3163 25.595 10.0163C24.1233 9.93616 22.6506 10.1526 21.2642 10.6528C19.8778 11.1529 18.6061 11.9266 17.5246 12.9278C16.443 13.929 15.5737 15.1374 14.9682 16.4811C14.3628 17.8249 14.0335 19.2766 14 20.75L11.1938 26.1475C11.1825 26.17 11.1713 26.1925 11.1613 26.215C10.9601 26.6839 10.9457 27.212 11.1212 27.6912C11.2966 28.1704 11.6486 28.5644 12.105 28.7925L12.1363 28.8063L15 30.1175V34C15 34.5304 15.2107 35.0392 15.5858 35.4142C15.9609 35.7893 16.4696 36 17 36H23C23.2652 36 23.5196 35.8947 23.7071 35.7071C23.8946 35.5196 24 35.2652 24 35C24 34.7348 23.8946 34.4804 23.7071 34.2929C23.5196 34.1054 23.2652 34 23 34H17V29.4763C17.0001 29.2846 16.9452 29.0969 16.8417 28.9356C16.7382 28.7742 16.5905 28.646 16.4163 28.5663L13 27L15.8838 21.4575C15.9589 21.3166 15.9988 21.1597 16 21C15.9997 18.9604 16.6922 16.9812 17.964 15.3867C19.2358 13.7922 21.0114 12.677 23 12.2238V14.1725C22.3328 14.4084 21.7704 14.8726 21.4124 15.483C21.0543 16.0934 20.9235 16.8107 21.0432 17.5082C21.1629 18.2057 21.5253 18.8385 22.0663 19.2946C22.6074 19.7508 23.2923 20.0009 24 20.0009C24.7077 20.0009 25.3926 19.7508 25.9337 19.2946C26.4747 18.8385 26.8371 18.2057 26.9568 17.5082C27.0765 16.8107 26.9457 16.0934 26.5876 15.483C26.2296 14.8726 25.6672 14.4084 25 14.1725V12C25.1625 12 25.325 12 25.4875 12.0125C27.2608 12.1141 28.9649 12.7363 30.3865 13.8012C31.8081 14.8662 32.8841 16.3267 33.48 18H31C30.8533 18 30.7084 18.0322 30.5755 18.0944C30.4427 18.1566 30.3251 18.2473 30.2313 18.36L27.0425 22.1875C26.3775 21.9397 25.6462 21.9351 24.9781 22.1744C24.31 22.4138 23.748 22.8817 23.3916 23.4954C23.0352 24.1092 22.9073 24.8292 23.0306 25.5281C23.1539 26.227 23.5203 26.8598 24.0652 27.3146C24.61 27.7694 25.2982 28.0168 26.0079 28.0132C26.7176 28.0095 27.4031 27.755 27.9432 27.2947C28.4834 26.8343 28.8433 26.1977 28.9594 25.4976C29.0755 24.7974 28.9402 24.0788 28.5775 23.4688L31.4688 20H33.9425C33.9725 20.26 33.9908 20.5225 33.9975 20.7875C34.0287 22.2198 33.7187 23.639 33.0932 24.9278C32.4677 26.2167 31.5445 27.3383 30.4 28.2C30.259 28.3057 30.1484 28.4469 30.0795 28.6091C30.0105 28.7713 29.9857 28.9489 30.0075 29.1238L31.0075 37.1238C31.0379 37.3653 31.1554 37.5874 31.3379 37.7485C31.5204 37.9095 31.7553 37.9985 31.9988 37.9988C32.0405 37.9988 32.0823 37.9962 32.1238 37.9913C32.2541 37.975 32.38 37.9333 32.4942 37.8684C32.6084 37.8035 32.7087 37.7168 32.7894 37.6131C32.87 37.5094 32.9295 37.3909 32.9644 37.2643C32.9992 37.1376 33.0088 37.0054 32.9925 36.875L32.0625 29.4338ZM24 18C23.8022 18 23.6089 17.9414 23.4444 17.8315C23.28 17.7216 23.1518 17.5654 23.0761 17.3827C23.0004 17.2 22.9806 16.9989 23.0192 16.8049C23.0578 16.6109 23.153 16.4328 23.2929 16.2929C23.4327 16.153 23.6109 16.0578 23.8049 16.0192C23.9989 15.9806 24.2 16.0004 24.3827 16.0761C24.5654 16.1518 24.7216 16.28 24.8315 16.4444C24.9414 16.6089 25 16.8022 25 17C25 17.2652 24.8946 17.5196 24.7071 17.7071C24.5196 17.8947 24.2652 18 24 18ZM26 26C25.8022 26 25.6089 25.9414 25.4444 25.8315C25.28 25.7216 25.1518 25.5654 25.0761 25.3827C25.0004 25.2 24.9806 24.9989 25.0192 24.8049C25.0578 24.6109 25.153 24.4328 25.2929 24.2929C25.4327 24.153 25.6109 24.0578 25.8049 24.0192C25.9989 23.9806 26.2 24.0004 26.3827 24.0761C26.5654 24.1518 26.7216 24.28 26.8315 24.4444C26.9414 24.6089 27 24.8022 27 25C27 25.2652 26.8946 25.5196 26.7071 25.7071C26.5196 25.8947 26.2652 26 26 26Z" fill="#2C777C"/>
</svg>
